<?xml version="1.0" encoding="UTF-8"?>
<!-- Created with Inkscape (http://www.inkscape.org/) -->
<svg width="180" height="180" version="1.1" viewBox="0 0 180 180" xml:space="preserve" xmlns="http://www.w3.org/2000/svg"><path d="m180 84.166-0.0566 13.244-5.8574-2.3477-8.2012-2.5137-8.2148-1.8301-8.2168-0.99219-8.2285-0.22461-8.2148 0.25195-8.2442 0.94922-8.2012 1.3945-8.2246 1.7285-8.2344 1.9766-8.1875 1.7539-8.2461 1.6055-8.2539 1.2227-8.1875 0.9082-8.2246 0.58398-8.2246 0.44532-1.0371 0.0293h-1.0254l-1.0156 0.0117-1.0352-0.0117-1.0352 0.0195-3.1035-2e-3 -4.0938-0.0488-3.0762-0.13281-1.0312-0.043-5.127-0.51562-2.0645-0.23047-3.1035-0.39258-4.0938-0.65625-2.0488-0.34954-8.2578-1.8066-3.0547-0.57422-1.0215-0.2168-1.0195-0.23633-1.0312-0.25781-1.0273-0.24219-1.0293-0.32422-0.95898-0.24609-0.49023-0.19726v48.102c0 19.944 16.056 36 36 36h108c19.944 0 36-16.056 36-36z" fill="#28235e"/><path d="m36 0c-19.944 0-36 16.056-36 36v46.389l9.6133 3.3184 16.57 3.6348 8.1445 0.85938 8.1445 0.33594 8.3691-0.05664 8.1465-0.44727 8.1445-1.0059 8.3691-1.2852 8.2012-1.6484 8.2012-1.7598 8.2305-1.7891 8.2012-1.6484 8.2285-1.3965 8.2578-1.0898 8.1445-0.61523 8.2578-0.16602 8.2578 0.39062 8.2559 0.94922 8.1465 1.4531 8.2012 1.9004 5.9141 1.8438v-48.166c0-19.944-16.056-36-36-36z" fill="#c6c6c6"/><text x="89.112183" y="166.42461" fill="#ffffff" font-family="Arial" font-size="32px" font-weight="bold" xml:space="preserve"><tspan x="89.112183" y="166.42461" fill="#ffffff" font-family="Montserrat" font-weight="500">AMP</tspan></text></svg>
