<?xml version="1.0" encoding="UTF-8"?>
<!-- Uploaded to: SVG Repo, www.svgrepo.com, Generator: SVG Repo Mixer Tools -->
<svg width="800px" height="800px" fill="none" version="1.1" viewBox="0 0 24 24" xmlns="http://www.w3.org/2000/svg">
 <path d="m21.28 6.4-9.54 9.54c-0.95 0.95-3.77 1.39-4.4 0.76s-0.2-3.45 0.75-4.4l9.55-9.55c0.2355-0.25694 0.5206-0.46348 0.8382-0.60718 0.3175-0.1437 0.6609-0.2216 1.0094-0.22894 0.3484-0.00733 0.6948 0.05601 1.0181 0.18622s0.6169 0.32461 0.863 0.57141 0.4397 0.5409 0.569 0.86456c0.1293 0.32367 0.1918 0.67017 0.1835 1.0186s-0.0872 0.69164-0.2317 1.0088c-0.1446 0.31715-0.3519 0.60174-0.6095 0.83655v0z" fill="#28235e" stroke="#28235e" stroke-linecap="round" stroke-linejoin="round" stroke-width="1.5"/>
 <path d="M11 4H6C4.93913 4 3.92178 4.42142 3.17163 5.17157C2.42149 5.92172 2 6.93913 2 8V18C2 19.0609 2.42149 20.0783 3.17163 20.8284C3.92178 21.5786 4.93913 22 6 22H17C19.21 22 20 20.2 20 18V13" stroke="#28235e" stroke-linecap="round" stroke-linejoin="round" stroke-width="1.5"/>
</svg>
